{"title":"The Terminal 2004 DVD9rip English Klam","uid":9087495,"size":2182294949,"categoryP":"video","categoryS":"movies","magnet":"?xt=urn:btih:6adb008c5a3dc52bf95ff1f944127dd22e04dbc5&amp;dn=The+Terminal+2004+DVD9rip+English+Klam&amp;tr=udp%3A%2F%2Ftracker.openbittorrent.com%3A80&amp;tr=udp%3A%2F%2Fopen.demonii.com%3A1337&amp;tr=udp%3A%2F%2Ftracker.coppersurfer.tk%3A6969&amp;tr=udp%3A%2F%2Fexodus.desync.com%3A6969","seeders":1,"leechers":0,"uploader":"Klambake","files":-1,"time":1382524089,"description":"With: Tom Hanks, Catherine Zeta-Jones and Stanley Tucci\n\nEen Oost-Europeaan, Viktor Navorsky, bezoekt New York. Wanneer hij op Kennedy Airport is aangekomen breekt er in zijn thuisland oorlog uit. Hij kan niet terugvliegen en mag met zijn huidige papieren de VS niet in. Viktor improviseert en maakt van Kennedy Airport maandenlang een tijdelijke thuis, waar hij de mensen bekijkt en verliefd wordt op stewardess Amelia.\n\nAn eastern immigrant finds himself stranded in JFK airport, and must take up temporary residence there. \n &lt;a href=&quot;\nhttp://www.imdb.com/title/tt0362227&quot; rel=&quot;nofollow&quot; target=&quot;_NEW&quot;&gt;\nhttp://www.imdb.com/title/tt0362227&lt;/a&gt;\t\n\n------------------------ Dutch Friends ------------------------\n---------------------------------------------------------------\n- Bezoek ook eens mijn vrienden op: &lt;a href=&quot; http://www.Film-Test.nl&quot; rel=&quot;nofollow&quot; target=&quot;_NEW&quot;&gt; http://www.Film-Test.nl&lt;/a&gt; --\n----- voor mijn Nederlandse Sync. ondertitels ---- en meer ----\n------- http://www.Film-Test.nl ---- Over Films en meer -------\n---------------------------------------------------------------\n\nGeneral:\n\nComplete name                    : The TerminalThe Terminal.avi\nFormat                           : AVI\nFormat/Info                      : Audio Video Interleave\nFile size                        : 2.03 GiB\nDuration                         : 2h 3mn\nOverall bit rate                 : 2 356 Kbps\n\nVideo:\n\nFormat                           : MPEG-4 Visual\nFormat profile                   : Simple@L3\nFormat settings, BVOP            : No\nFormat settings, QPel            : No\nFormat settings, GMC             : No warppoints\nFormat settings, Matrix          : Default (H.263)\nCodec ID                         : XVID\nCodec ID/Hint                    : XviD\nDuration                         : 2h 3mn\nBit rate                         : 1 897 Kbps\nWidth                            : 652 pixels\nHeight                           : 352 pixels\nDisplay aspect ratio             : 1.852\nFrame rate                       : 25.000 fps\nColor space                      : YUV\nChroma subsampling               : 4:2:0\nBit depth                        : 8 bits\nScan type                        : Progressive\nCompression mode                 : Lossy\nBits/(Pixel*Frame)               : 0.331\nStream size                      : 1.64 GiB (81%)\nWriting library                  : XviD 1.1.2 (UTC 2006-11-01)\n\nAudio:\n\nFormat                           : AC-3\nFormat/Info                      : Audio Coding 3\nMode extension                   : CM (complete main)\nCodec ID                         : 2000\nDuration                         : 2h 3mn\nBit rate mode                    : Constant\nBit rate                         : 448 Kbps\nChannel(s)                       : 6 channels\nChannel positions                : Front: L C R, Side: L R, LFE\nSampling rate                    : 48.0 KHz\nBit depth                        : 16 bits\nCompression mode                 : Lossy\nStream size                      : 396 MiB (19%)\nAlignment                        : Aligned on interleaves\nInterleave, duration             : 32 ms (0.80 video frame)\nInterleave, preload duration     : 192 ms","torrent":{"xt":"urn:btih:6adb008c5a3dc52bf95ff1f944127dd22e04dbc5","amp;dn":"The+Terminal+2004+DVD9rip+English+Klam","amp;tr":["udp%3A%2F%2Ftracker.openbittorrent.com%3A80","udp%3A%2F%2Fopen.demonii.com%3A1337","udp%3A%2F%2Ftracker.coppersurfer.tk%3A6969","udp%3A%2F%2Fexodus.desync.com%3A6969"],"infoHash":"6adb008c5a3dc52bf95ff1f944127dd22e04dbc5","infoHashBuffer":{"type":"Buffer","data":[106,219,0,140,90,61,197,43,249,95,241,249,68,18,125,210,46,4,219,197]},"announce":[],"urlList":[]}}